<svg fill="none" height="64" viewBox="0 0 64 64" width="64" xmlns="http://www.w3.org/2000/svg"><g fill="rgb(0,0,0)"><path clip-rule="evenodd" d="m46 2c.9337 0 1.7432.64607 1.9502 1.55654l1.1066 4.8664c.5118 2.25086 2.2694 4.00846 4.5203 4.52026l4.8664 1.1066c.9104.207 1.5565 1.0165 1.5565 1.9502s-.6461 1.7432-1.5565 1.9502l-4.8664 1.1066c-2.2509.5118-4.0085 2.2694-4.5203 4.5203l-1.1066 4.8664c-.207.9104-1.0165 1.5565-1.9502 1.5565s-1.7432-.6461-1.9502-1.5565l-1.1066-4.8664c-.5118-2.2509-2.2694-4.0085-4.5203-4.5203l-4.8664-1.1066c-.9104-.207-1.5565-1.0165-1.5565-1.9502s.6461-1.7432 1.5565-1.9502l4.8664-1.1066c2.2509-.5118 4.0085-2.2694 4.5203-4.52026l1.1066-4.8664c.207-.91047 1.0165-1.55654 1.9502-1.55654zm0 9.6384c-.9573 1.8758-2.4858 3.4043-4.3616 4.3616 1.8758.9573 3.4043 2.4858 4.3616 4.3616.9573-1.8758 2.4858-3.4043 4.3616-4.3616-1.8758-.9573-3.4043-2.4858-4.3616-4.3616z" fill-rule="evenodd"/><path clip-rule="evenodd" d="m31.4993 37.3315c.9399-1.1916 1.5007-2.6961 1.5007-4.3315 0-3.866-3.134-7-7-7s-7 3.134-7 7c0 1.6354.5608 3.1399 1.5007 4.3315-3.8611 1.9943-6.5007 6.0231-6.5007 10.6685 0 1.1046.8954 2 2 2s2-.8954 2-2c0-4.4183 3.5817-8 8-8s8 3.5817 8 8c0 1.1046.8954 2 2 2s2-.8954 2-2c0-4.6454-2.6396-8.6742-6.5007-10.6685zm-5.4993-7.3315c-1.6569 0-3 1.3431-3 3s1.3431 3 3 3 3-1.3431 3-3-1.3431-3-3-3z" fill-rule="evenodd"/><path d="m12 14h17.417c-.2692.6162-.417 1.2939-.417 2s.1478 1.3838.417 2h-17.417c-2.20914 0-4 1.7909-4 4v32c0 2.2091 1.79086 4 4 4h28c2.2091 0 4-1.7909 4-4v-21.417c.6162.2692 1.2939.417 2 .417s1.3838-.1478 2-.417v21.417c0 4.4183-3.5817 8-8 8h-28c-4.41828 0-8-3.5817-8-8v-32c0-4.4183 3.58172-8 8-8z"/></g></svg>