<svg id="Layer_1" enable-background="new 0 0 53 53" height="512" viewBox="0 0 53 53" width="512" xmlns="http://www.w3.org/2000/svg"><g id="_x36_7"><path d="m39.8800049 12.1149902h-26.7700195c-.5499878 0-1 .4500122-1 1v26.7700195c0 .4793091.4122925 1 1 1h26.7700195c.5554199 0 1-.4701538 1-1v-26.7700195c0-.5499878-.4500122-1-1-1zm-1 23.9700318-5.9500122-10.5300293c-.3500366-.6300049-1.0200195-1.0200195-1.7399902-1.0200195-.7200317 0-1.3900146.3900146-1.7399902 1.0200195l-4.5100098 8-2.710022-3.9500122c-.3699951-.539978-.9799805-.8699951-1.6400146-.8699951h-.0100098c-.6599731 0-1.2799683.3200073-1.6599731.8699951l-4.8099976 7.0400391v-22.5300294h24.7700195z"/><path d="m8.1099854 33.2749634h-2v2h2z"/><path d="m6.1099854 21.5050049h2v-2h-2z"/><path d="m21.3599854 23.4049683c1.6500244 0 3-1.3499756 3-3 0-1.6499634-1.3499756-2.9899902-3-2.9899902s-3 1.3400269-3 2.9899902c0 1.6500244 1.3499755 3 3 3z"/><path d="m11.7299805 43.2749634c0-1.0999756-.9000244-2-2-2h-5.2299805c-1.1100464 0-2 .9000244-2 2v5.2200317c0 1.1099854.8899536 2 2 2h5.2299805c1.0999756 0 2-.8900146 2-2v-1.6099854h1.7700195v-2h-1.7700195z"/><path d="m6.1099854 39.2749634h2v-2h-2z"/><path d="m8.1099854 29.4949951c1.1099854 0 2-.8900146 2-2v-1.9899902c0-1.1000366-.8900146-2-2-2h-2c-1.0999756 0-2 .8999634-2 2v1.9899902c0 1.1099854.9000244 2 2 2v1.7799683h2z"/><path d="m4.5 11.7249756h1.6099854v1.7800293h2v-1.7800293h1.6199951c1.0999756 0 2-.8999634 2-2v-1.6099854h1.7700195v-2h-1.7700195v-1.6099853c0-1.1000366-.9000244-2-2-2h-5.2299805c-1.1100464 0-2 .8999634-2 2v5.2199707c0 1.1000366.8899536 2 2 2z"/><path d="m17.5 6.1149902h-2v2h2z"/><path d="m15.5 46.8850098h2v-2h-2z"/><path d="m21.5 6.1149902h-2v2h2z"/><path d="m8.1099854 15.5050049h-2v2h2z"/><path d="m19.5 46.8850098h2v-2h-2z"/><path d="m25.5 10.1149902h2c1.0999756 0 2-.9000244 2-2h1.7600098v-2h-1.7600098c0-1.0999756-.9000244-2-2-2h-2c-1.1000366 0-2 .9000244-2 2v2c0 1.0999756.8999634 2 2 2z"/><path d="m27.5 42.8850098h-2c-1.1000366 0-2 .8999634-2 2v2c0 1.0999756.8999634 2 2 2h2c1.0999756 0 2-.9000244 2-2h1.7600098v-2h-1.7600098c0-1.1000367-.9000244-2-2-2z"/><path d="m46.8800049 33.2749634h-2v2h2z"/><path d="m42.8800049 25.5050049v1.9899902c0 1.1099854.8999634 2 2 2v1.7799683h2v-1.7799683c1.1099854 0 2-.8900146 2-2v-1.9899902c0-1.1000366-.8900146-2-2-2h-2c-1.1000366 0-2 .8999634-2 2z"/><path d="m48.5 2.5050049h-5.2300415c-1.0999756 0-2 .8999634-2 2-.0001831 2.8886719-.0136719.2481689 0 5.2199707 0 1.1000366.9000244 2 2 2h1.6100464v1.7800293h2v-1.7800293h1.6199951c1.0999756 0 2-.8999634 2-2v-5.2199707c0-1.1000366-.9000244-2-2-2z"/><path d="m30.1199951 18.9649658c.6400146 0 1.1699829.5200195 1.1699829 1.1600342 0 .5499878.4400024 1 1 1 .5499878 0 1-.4500122 1-1 0-.6400146.5200195-1.1600342 1.1600342-1.1600342.5499878 0 1-.4400024 1-1 0-.5499878-.4500122-1-1-1-.8400269 0-1.6000366.3300171-2.1600342.8600464-.5700073-.5300293-1.3300171-.8600464-2.1699829-.8600464-.5499878 0-1 .4500122-1 1 0 .5599976.4500122 1 1 1z"/><path d="m48.5 41.2749634h-5.2300415c-1.0999756 0-2 .9000244-2 2v1.6100464h-.0099487v2h.0099487v1.6099854c0 1.1099854.9000244 2 2 2h5.2300415c1.0999756 0 2-.8900146 2-2v-5.2200317c0-1.0999757-.9000244-2.0000001-2-2.0000001z"/><path d="m46.8800049 15.5050049h-2v2h2z"/><path d="m39.2600098 6.1149902h-2v2h2z"/><path d="m33.2600098 46.8850098h2v-2h-2z"/><path d="m44.8800049 39.2749634h2v-2h-2z"/><path d="m37.2600098 46.8850098h2v-2h-2z"/><path d="m35.2600098 6.1149902h-2v2h2z"/><path d="m44.8800049 21.5050049h2v-2h-2z"/></g></svg>